<?xml version="1.0" encoding="UTF-8" ?>
<!DOCTYPE svg PUBLIC "-//W3C//DTD SVG 1.1//EN" "http://www.w3.org/Graphics/SVG/1.1/DTD/svg11.dtd">
<svg width="214pt" height="40pt" viewBox="0 0 214 40" version="1.1" xmlns="http://www.w3.org/2000/svg">
<g id="#000000ff">
<path fill="#ffffff" opacity="1.00" d=" M 0.74 2.01 C 7.43 2.33 14.67 0.81 20.82 4.22 C 26.35 7.28 28.49 14.06 28.01 20.06 C 28.02 25.46 25.47 31.06 20.57 33.69 C 14.50 37.06 7.36 35.76 0.74 35.99 C 0.73 24.66 0.73 13.34 0.74 2.01 M 4.74 6.01 C 4.73 14.67 4.73 23.33 4.74 31.98 C 10.09 32.09 16.31 32.52 20.48 28.50 C 24.73 23.89 24.79 16.42 21.99 11.07 C 18.34 5.25 10.69 5.88 4.74 6.01 Z" />
<path fill="#ffffff" opacity="1.00" d=" M 54.45 2.07 C 55.60 2.04 56.75 2.01 57.90 1.98 C 62.33 13.33 66.92 24.63 71.32 36.00 C 69.95 35.99 68.58 35.99 67.21 35.99 C 65.79 32.66 64.43 29.31 62.97 26.01 C 58.38 26.00 53.79 25.98 49.20 26.02 C 47.86 29.37 46.37 32.65 45.03 35.99 C 43.69 35.99 42.35 35.99 41.01 36.00 C 45.45 24.67 50.06 13.42 54.45 2.07 M 50.61 21.99 C 54.32 22.00 58.02 22.03 61.73 21.95 C 59.88 16.85 57.78 11.85 56.20 6.66 C 54.62 11.87 52.56 16.91 50.61 21.99 Z" />
<path fill="#ffffff" opacity="1.00" d=" M 82.53 2.01 C 90.04 1.99 97.55 2.00 105.05 2.01 C 105.02 2.74 104.95 4.21 104.91 4.94 C 102.47 9.10 99.49 12.90 96.94 16.99 C 107.85 17.02 118.75 16.99 129.66 17.00 C 132.13 13.34 134.66 9.72 137.06 6.01 C 131.22 5.98 125.37 6.02 119.53 5.99 C 119.53 4.66 119.53 3.34 119.53 2.01 C 127.04 1.99 134.55 2.00 142.05 2.01 C 142.02 2.74 141.95 4.20 141.91 4.93 C 139.48 9.09 136.49 12.90 133.94 16.99 C 138.29 17.02 142.64 16.99 147.00 17.00 C 147.00 18.33 147.00 19.67 147.00 21.00 C 141.74 21.00 136.49 21.01 131.23 20.99 C 128.69 24.62 126.26 28.31 123.81 32.00 C 130.03 32.01 136.25 31.99 142.47 32.01 C 142.46 33.34 142.46 34.66 142.47 35.99 C 134.58 36.00 126.70 36.01 118.81 35.99 C 118.85 35.26 118.92 33.79 118.96 33.06 C 121.39 28.90 124.37 25.09 126.93 21.02 C 116.03 20.97 105.13 21.02 94.24 20.99 C 91.69 24.62 89.26 28.31 86.80 32.00 C 93.03 32.01 99.25 31.99 105.47 32.01 C 105.46 33.34 105.46 34.66 105.47 35.99 C 97.58 36.00 89.70 36.01 81.81 35.99 C 81.85 35.26 81.92 33.79 81.96 33.06 C 84.39 28.90 87.37 25.09 89.93 21.02 C 85.62 20.98 81.31 21.01 77.00 21.00 C 77.00 19.66 77.00 18.33 77.00 17.00 C 82.22 16.99 87.44 17.01 92.67 17.00 C 95.13 13.34 97.66 9.71 100.06 6.01 C 94.22 5.98 88.38 6.02 82.53 5.99 C 82.53 4.66 82.53 3.34 82.53 2.01 Z" />
<path fill="#ffffff" opacity="1.00" d=" M 158.74 2.00 C 160.07 2.01 161.40 2.01 162.74 2.01 C 162.73 12.01 162.73 22.00 162.74 31.99 C 167.74 32.02 172.74 31.98 177.74 32.01 C 177.73 33.34 177.73 34.66 177.74 35.99 C 171.40 36.01 165.07 36.00 158.74 35.99 C 158.73 24.66 158.73 13.33 158.74 2.00 Z" />
<path fill="#ffffff" opacity="1.00" d=" M 193.74 2.01 C 200.07 2.00 206.40 1.99 212.74 2.01 C 212.73 3.34 212.74 4.66 212.74 5.98 C 207.74 6.02 202.74 5.98 197.74 6.01 C 197.73 9.34 197.73 12.66 197.74 15.99 C 202.45 16.01 207.16 15.99 211.87 16.01 C 211.87 17.34 211.87 18.66 211.87 19.99 C 207.16 20.01 202.45 19.99 197.74 20.01 C 197.73 24.00 197.73 28.00 197.74 31.99 C 202.74 32.02 207.74 31.98 212.74 32.01 C 212.73 33.34 212.73 34.66 212.74 35.99 C 206.40 36.01 200.07 36.00 193.74 35.99 C 193.73 24.66 193.73 13.34 193.74 2.01 Z" />
</g>
</svg>
