<?xml version="1.0" encoding="UTF-8" ?>
<!DOCTYPE svg PUBLIC "-//W3C//DTD SVG 1.1//EN" "http://www.w3.org/Graphics/SVG/1.1/DTD/svg11.dtd">
<svg width="100pt" height="100pt" viewBox="0 0 100 100" version="1.1" xmlns="http://www.w3.org/2000/svg">
<g id="#212121ff">
<path fill="#212121" opacity="1.00" d=" M 41.54 1.74 C 55.08 -0.72 69.64 2.96 80.24 11.77 C 91.11 20.43 97.76 34.05 97.99 47.93 C 98.40 62.29 91.91 76.66 80.80 85.77 C 70.73 94.38 56.94 98.36 43.82 96.59 C 29.58 94.86 16.43 86.24 9.02 73.99 C 1.91 62.50 0.14 47.96 4.07 35.06 C 9.03 18.10 24.12 4.70 41.54 1.74 M 24.53 32.00 C 24.54 33.33 24.54 34.67 24.53 36.00 C 30.38 36.00 36.24 35.99 42.09 36.01 C 36.57 44.20 31.06 52.39 25.48 60.53 C 24.33 62.13 23.92 64.07 23.53 65.96 C 31.51 66.05 39.49 65.97 47.47 66.00 C 47.46 64.67 47.46 63.33 47.47 62.00 C 41.25 62.00 35.02 61.99 28.80 62.00 C 33.21 55.38 37.67 48.80 42.13 42.21 C 44.23 39.02 47.02 36.03 47.34 32.03 C 39.73 31.96 32.13 32.02 24.53 32.00 M 54.53 32.00 C 54.54 33.33 54.54 34.67 54.53 36.00 C 60.38 36.00 66.23 35.99 72.09 36.01 C 66.57 44.20 61.07 52.39 55.48 60.52 C 54.32 62.12 53.95 64.07 53.52 65.95 C 61.50 66.06 69.49 65.97 77.47 66.00 C 77.46 64.67 77.46 63.33 77.47 62.00 C 71.25 62.00 65.02 61.99 58.80 62.00 C 63.22 55.37 67.69 48.77 72.17 42.16 C 74.26 38.99 77.02 36.01 77.34 32.03 C 69.73 31.96 62.13 32.02 54.53 32.00 Z" />
</g>
</svg>
